#!OML:ASF E:\Style6\Style6.ASF
:FULLY-SPECIFIED
:DEGREES
2907
root 0.298019 18.2806 0.55474 5.99745 -9.67103 -2.91053
lowerback -4.87733 -1.1437 2.87391
upperback 1.09321 -1.78851 2.09777
thorax 3.84539 -0.848692 0.408789
lowerneck -2.30502 -3.71524 0.800038
upperneck -5.38796 -5.2546 -6.1173
head -1.49769 -2.56983 -2.02817
rclavicle -1.25731e-014 -2.10712e-014
rhumerus 0.0341415 22.6422 -100.176
rradius 139.467
rwrist 49.0677
rhand 28.3164 -6.20297
rfingers 7.12502
rthumb 52.1872 -26.1968
lclavicle -1.25731e-014 -2.10712e-014
lhumerus -2.97306 -17.3759 97.4674
lradius 135.032
lwrist -32.4896
lhand 7.88459 36.3463
lfingers 7.12502
lthumb 33.1173 63.3217
rfemur -5.35306 28.1559 19.9917
rtibia 3.24781
rfoot -2.86453 -30.2674
rtoes -1.6103
lfemur -3.62145 -29.6077 -17.3707
ltibia 13.8927
lfoot -16.5589 38.9657
ltoes 11.0054
2908
root 0.296468 18.2807 0.555191 5.99675 -9.65931 -2.97305
lowerback -4.87052 -1.15712 2.90674
upperback 1.10767 -1.81018 2.13428
thorax 3.85656 -0.858977 0.42642
lowerneck -2.32546 -3.70188 0.801156
upperneck -5.42698 -5.24037 -6.14846
head -1.50725 -2.56207 -2.03894
rclavicle -4.42296e-015 -1.98785e-015
rhumerus 0.100238 22.6896 -100.15
rradius 139.464
rwrist 49.0813
rhand 28.3196 -6.20838
rfingers 7.12502
rthumb 52.19 -26.2005
lclavicle -4.42296e-015 -1.98785e-015
lhumerus -2.95269 -17.3271 97.4655
lradius 135.015
lwrist -32.4744
lhand 7.8345 36.2593
lfingers 7.12502
lthumb 33.0697 63.2448
rfemur -5.29572 28.1821 20.0804
rtibia 3.16884
rfoot -2.79882 -30.3197
rtoes -1.73148
lfemur -3.60071 -29.6031 -17.3034
ltibia 13.8963
lfoot -16.6849 38.8962
ltoes 11.2464
2909
root 0.294919 18.2808 0.556111 5.99047 -9.65528 -3.03831
lowerback -4.86893 -1.1676 2.95075
upperback 1.12351 -1.82901 2.17288
thorax 3.87189 -0.867563 0.440065
lowerneck -2.32499 -3.70125 0.733556
upperneck -5.4604 -5.23929 -6.11486
head -1.5147 -2.56007 -2.0159
rclavicle -1.14301e-015 -3.57812e-015
rhumerus 0.109962 22.733 -100.137
rradius 139.466
rwrist 49.0755
rhand 28.2857 -6.21468
rfingers 7.12502
rthumb 52.1593 -26.2253
lclavicle -1.14301e-015 -3.57812e-015
lhumerus -2.92902 -17.2657 97.4547
lradius 135.014
lwrist -32.4423
lhand 7.86646 36.2089
lfingers 7.12502
lthumb 33.1 63.1879
rfemur -5.32332 28.215 20.1627
rtibia 3.26205
rfoot -2.7191 -30.368
rtoes -2.1601
lfemur -3.5673 -29.5245 -17.2308
ltibia 13.8633
lfoot -16.6781 38.7886
ltoes 11.4459
2910
root 0.294104 18.2806 0.557714 5.96705 -9.64324 -2.9452
lowerback -4.88567 -1.17262 2.87596
upperback 1.13221 -1.83102 2.14667
thorax 3.89166 -0.869681 0.454168
lowerneck -2.30383 -3.70473 0.722669
upperneck -5.4869 -5.24622 -6.12695
head -1.52722 -2.56231 -2.01737
rclavicle 2.57426e-014 -5.96354e-015
rhumerus 0.132543 22.7249 -100.13
rradius 139.492
rwrist 49.0611
rhand 28.361 -6.23355
rfingers 7.12502
rthumb 52.2276 -26.203
lclavicle 2.57426e-014 -5.96354e-015
lhumerus -2.92639 -17.2497 97.4368
lradius 135.024
lwrist -32.4397
lhand 8.00263 36.1763
lfingers 7.12502
lthumb 33.2295 63.1278
rfemur -5.38116 28.2214 20.0617
rtibia 3.41246
rfoot -2.84542 -30.3678
rtoes -2.06075
lfemur -3.53415 -29.5599 -17.3375
ltibia 13.8142
lfoot -16.4316 38.8749
ltoes 10.9636
2911
root 0.294897 18.2812 0.559689 5.98467 -9.60593 -2.88855
lowerback -4.94043 -1.17099 2.84878
upperback 1.13801 -1.8289 2.12428
thorax 3.92869 -0.868498 0.44515
lowerneck -2.31388 -3.72197 0.768243
upperneck -5.49542 -5.27181 -6.16071
head -1.53187 -2.57555 -2.03634
rclavicle -5.46658e-016 -3.97569e-016
rhumerus 0.173745 22.6768 -100.112
rradius 139.5
rwrist 49.0874
rhand 28.458 -6.17732
rfingers 7.12502
rthumb 52.3154 -26.0937
lclavicle -5.46658e-016 -3.97569e-016
lhumerus -2.91515 -17.2876 97.4293
lradius 135.042
lwrist -32.4215
lhand 7.97189 36.2441
lfingers 7.12502
lthumb 33.2003 63.2019
rfemur -5.51525 28.2059 19.9748
rtibia 3.62793
rfoot -2.9099 -30.3709
rtoes -2.38613
lfemur -3.52986 -29.6582 -17.3907
ltibia 13.7468
lfoot -16.3322 38.9839
ltoes 10.7002
2912
root 0.295069 18.2822 0.561165 5.98037 -9.60501 -2.85697
lowerback -4.95467 -1.16342 2.82577
upperback 1.14861 -1.81801 2.11591
thorax 3.94825 -0.863248 0.449836
lowerneck -2.34698 -3.72773 0.748016
upperneck -5.48657 -5.27676 -6.12587
head -1.52161 -2.57881 -2.02197
rclavicle -7.15625e-015 1.59028e-014
rhumerus 0.228194 22.6783 -100.096
rradius 139.514
rwrist 49.1421
rhand 28.5325 -6.17341
rfingers 7.12502
rthumb 52.3829 -26.0489
lclavicle -7.15625e-015 1.59028e-014
lhumerus -2.89727 -17.3311 97.4405
lradius 135.039
lwrist -32.446
lhand 7.98863 36.2786
lfingers 7.12502
lthumb 33.2162 63.233
rfemur -5.6791 28.2285 19.9176
rtibia 3.92493
rfoot -3.02388 -30.3762
rtoes -2.65759
lfemur -3.47541 -29.6632 -17.4354
ltibia 13.6604
lfoot -16.1564 39.0376
ltoes 10.4106
2913
root 0.294906 18.2815 0.56199 5.95964 -9.61676 -2.88879
lowerback -4.93436 -1.16866 2.85217
upperback 1.15182 -1.8266 2.13292
thorax 3.93981 -0.867199 0.452363
lowerneck -2.30153 -3.70743 0.758268
upperneck -5.53247 -5.25404 -6.15056
head -1.54452 -2.56572 -2.03108
rclavicle -8.69683e-015 -1.55052e-014
rhumerus 0.231006 22.707 -100.107
rradius 139.521
rwrist 49.1285
rhand 28.5963 -6.20392
rfingers 7.12502
rthumb 52.4406 -26.0442
lclavicle -8.69683e-015 -1.55052e-014
lhumerus -2.92454 -17.3053 97.4271
lradius 135.051
lwrist -32.4483
lhand 8.03424 36.296
lfingers 7.12502
lthumb 33.2596 63.2411
rfemur -5.71988 28.2723 19.9552
rtibia 4.05546
rfoot -3.11934 -30.394
rtoes -2.69945
lfemur -3.41815 -29.6633 -17.4241
ltibia 13.6235
lfoot -16.1462 39.0636
ltoes 10.5761
2914
root 0.294617 18.2816 0.561642 5.96735 -9.62617 -2.8865
lowerback -4.92409 -1.17816 2.83711
upperback 1.12648 -1.8373 2.14239
thorax 3.90836 -0.873479 0.470151
lowerneck -2.19977 -3.68851 0.767738
upperneck -5.62233 -5.23473 -6.14354
head -1.5903 -2.55287 -2.0285
rclavicle 3.78685e-014 -2.5842e-014
rhumerus 0.171478 22.7149 -100.13
rradius 139.552
rwrist 49.1456
rhand 28.5969 -6.16432
rfingers 7.12502
rthumb 52.4412 -26.0042
lclavicle 3.78685e-014 -2.5842e-014
lhumerus -2.9748 -17.2377 97.4279
lradius 135.064
lwrist -32.3796
lhand 8.07264 36.283
lfingers 7.12502
lthumb 33.2961 63.2203
rfemur -5.71403 28.3106 19.9454
rtibia 4.0199
rfoot -3.06205 -30.4294
rtoes -2.63104
lfemur -3.43916 -29.6496 -17.4174
ltibia 13.6344
lfoot -16.1479 39.0579
ltoes 10.6656
2915
root 0.294655 18.2822 0.560973 5.99333 -9.61234 -2.88755
lowerback -4.92531 -1.18435 2.84857
upperback 1.09942 -1.84533 2.14244
thorax 3.88053 -0.877643 0.463393
lowerneck -2.12839 -3.6819 0.775934
upperneck -5.66555 -5.22684 -6.09807
head -1.6149 -2.5476 -2.01373
rclavicle -1.93318e-014 3.97569e-015
rhumerus 0.114242 22.7668 -100.165
rradius 139.571
rwrist 49.1699
rhand 28.5282 -6.193
rfingers 7.12502
rthumb 52.379 -26.0708
lclavicle -1.93318e-014 3.97569e-015
lhumerus -3.0187 -17.2627 97.4203
lradius 135.104
lwrist -32.3488
lhand 8.10455 36.3826
lfingers 7.12502
lthumb 33.3264 63.3133
rfemur -5.70878 28.3262 19.9328
rtibia 3.94179
rfoot -3.07283 -30.4903
rtoes -2.3689
lfemur -3.49145 -29.6255 -17.3942
ltibia 13.6602
lfoot -16.1022 39.0317
ltoes 10.4954
